<?xml version="1.0" encoding="UTF-8"?>
<svg id="Layer_2" data-name="Layer 2" xmlns="http://www.w3.org/2000/svg" viewBox="0 0 223.96 258.56">
  <defs>
    <style>
      .cls-1 {
        stroke-width: 3px;
      }

      .cls-1, .cls-2 {
        fill: none;
        stroke: #231f20;
        stroke-miterlimit: 10;
      }

      .cls-2 {
        stroke-width: 2px;
      }
    </style>
  </defs>
  <g id="design">
    <path class="cls-1" d="M112.06,129.41c28.73-16.39,57.34-32.94,86.03-49.39,8-4.58,15.97-9.21,23.83-14.02"/>
    <path class="cls-1" d="M2.52,66.16c-.17.25-.36.48-.57.7-.15.12-.3.23-.45.35v126.04l109.73,63.36c.27-.15.55-.28.83-.37v-126.83L2.52,66.16Z"/>
    <polygon class="cls-1" points="215.25 129.41 215.25 78.34 119.43 133.66 119.43 184.74 215.25 129.41"/>
    <polygon class="cls-1" points="119.43 193.25 119.43 244.32 215.25 188.99 215.25 137.92 119.43 193.25"/>
    <line class="cls-1" x1="126.8" y1="146.43" x2="148.92" y2="133.66"/>
    <line class="cls-1" x1="148.92" y1="142.18" x2="126.8" y2="154.94"/>
    <line class="cls-1" x1="126.8" y1="163.46" x2="148.92" y2="150.69"/>
    <line class="cls-1" x1="126.8" y1="206.01" x2="148.92" y2="193.25"/>
    <line class="cls-1" x1="126.8" y1="214.53" x2="148.92" y2="201.76"/>
    <line class="cls-1" x1="126.8" y1="223.04" x2="148.92" y2="210.27"/>
    <circle class="cls-2" cx="200.51" cy="112.39" r="3.62"/>
    <circle class="cls-2" cx="185.77" cy="120.9" r="3.62"/>
    <circle class="cls-2" cx="200.51" cy="171.87" r="3.62"/>
    <circle class="cls-2" cx="185.77" cy="180.38" r="3.62"/>
    <polygon class="cls-1" points="8.87 78.34 104.69 133.66 104.69 184.74 8.87 129.41 8.87 78.34"/>
    <polygon class="cls-1" points="8.87 154.94 8.87 171.97 23.61 180.48 23.61 197.5 38.35 206.01 38.35 188.99 53.1 197.5 53.1 180.48 38.35 171.97 38.35 154.94 23.61 146.43 23.61 163.46 8.87 154.94"/>
    <circle class="cls-1" cx="89.95" cy="218.78" r="10.63"/>
    <circle class="cls-1" cx="75.21" cy="193.25" r="10.63"/>
    <path class="cls-1" d="M221.52,64.93L112.06,1.73,2.09,65.23c.05.25.09.49.11.74l109.86,63.44,109.83-63.42c-.16-.34-.29-.69-.37-1.06Z"/>
    <path class="cls-1" d="M112.04,256.35c.21.11.4.25.59.4l109.83-63.51-.56-125.82c-.4-.23-.72-.52-1.01-.86l-108.83,62.84c.38,41.8.38,84.22.01,125.98-.04.31-.04.64-.04.96Z"/>
    <g>
      <g>
        <path class="cls-1" d="M70.28,48.51c-.54-1.36.64-2.99.71-3.09,1.52-2.05,5.01-2.29,6.59-.95.28.24.66.95,1.43,2.38.61,1.14.66,1.24.91,1.85.17.41-.06,1.32.5,1.9.03.59,2.06-.57,2.34-.75.81-.52.73-.04,1.09-.3.9-.65,1.36-1.07,1.9-1.51,1.2-.98,2.85-.49,4.68-.32,2.23.21,1.59-.32,7.06-.79,4.76-.41,7.25-.17,7.86-1.51.2-.43.35-1.36,1.19-1.9.3-.19.59-.28.79-.32.45-1.09,1.17-2.64,2.3-4.36.98-1.5,1.84-2.48,3.41-4.29,2.16-2.47,4.13-4.44,4.13-4.44,2.03-2.03,2.26-2.05,2.78-2.94.94-1.6.81-2.59,1.98-3.57.3-.25,1.43-1.19,2.54-.79.82.3,1.47,1.27,1.27,1.9-.18.6-.98.53-1.19,1.19-.19.62.43.97.24,1.59-.11.35-.57.61-1.51,1.11,0,0-.59.32-1.98.95-.55,1.21-1.08,2.48-1.59,3.81-.19.51-.38,1.01-.56,1.51,1.27,1.16,2.54,2.33,3.81,3.49-1.09,1.6-2.05,2.91-2.78,3.89-1.51,2.02-2.06,2.61-2.38,2.94-1.26,1.3-1.6,1.29-2.3,2.14-1.18,1.43-1.09,2.47-1.75,4.13-1.23,3.09-2.83,2.71-4.44,5.71-.85,1.59-1.08,3.3-1.51,6.67-.38,3.03-.36,4.71-.48,7.3-.28,6.15-.82,5.65-1.27,12.7-.27,4.18-.17,5.77-.71,9.52-.32,2.2-.69,3.99-.95,5.16-1.72-.03-3.44-.05-5.16-.08-1.52,2.2-1.6,3.69-1.35,4.68.2.81.62,1.24.4,1.75-.39.88-2.24.85-4.13.79-3.48-.09-3.97-.88-6.9-.71-.53.03-1.14.09-1.19-.08-.1-.33,1.86-1.34,3.73-1.98,2.07-.72,2.52-.47,3.57-1.19,1.36-.94,2.33-2.55,1.98-3.02-.17-.23-.63-.17-1.03-.08,1.35-2.18,1.69-3.93,1.75-5.16.04-.95-.08-1.93.24-3.49.24-1.19.56-2.3.56-2.3.17-.6.26-.86.4-1.43,0,0,.2-.87.32-1.83.2-1.7-.02-3.79-.08-4.76-.03-.39.14-2.19.48-5.79.26-2.76.43-4.44-.56-6.11-.23-.39-.47-.68-.63-.87-.18.63-.54,1.52-1.35,2.14-1.34,1.04-3.11.74-4.29.56-2.6-.41-5.64-.82-9.6-1.27.08.18.66,1.58-.08,2.86-.94,1.62-3.11,1.44-3.25,1.43-.9-.09-1.68-.72-3.25-1.98-1.38-1.11-1.48-1.49-1.51-1.67-.18-1.03.88-1.49.79-2.7-.07-1-.82-1-1.03-1.98-.13-.64.08-1.11,1.9-4.44.76-1.4,1.21-2.2.87-2.86-.24-.48-.73-.55-.79-1.03-.09-.67.8-.92.79-1.59,0-.77-1.22-1.47-2.06-1.75-1.21-.4-1.91-.03-2.3-.56-.31-.41.05-.75-.16-1.59-.24-.99-.88-1.13-1.19-1.9Z"/>
        <path class="cls-1" d="M95.92,52.79l3.13.28c-.02.19-.11.62-.44.99-.34.39-.76.51-1.07.6-.48.14-1.08.3-1.47,0-.42-.32-.5-1.1-.16-1.86Z"/>
      </g>
      <g>
        <path class="cls-1" d="M153.84,52.13c.54-1.36-.64-2.99-.71-3.09-1.52-2.05-5.01-2.29-6.59-.95-.28.24-.66.95-1.43,2.38-.61,1.14-.66,1.24-.91,1.85-.17.41.06,1.32-.5,1.9-.03.59-2.06-.57-2.34-.75-.81-.52-.73-.04-1.09-.3-.9-.65-1.36-1.07-1.9-1.51-1.2-.98-2.85-.49-4.68-.32-2.23.21-1.59-.32-7.06-.79-4.76-.41-7.25-.17-7.86-1.51-.2-.43-.35-1.36-1.19-1.9-.3-.19-.59-.28-.79-.32-.45-1.09-1.17-2.64-2.3-4.36-.98-1.5-1.84-2.48-3.41-4.29-2.16-2.47-4.13-4.44-4.13-4.44-2.03-2.03-2.26-2.05-2.78-2.94-.94-1.6-.81-2.59-1.98-3.57-.3-.25-1.43-1.19-2.54-.79-.82.3-1.47,1.27-1.27,1.9.18.6.98.53,1.19,1.19.19.62-.43.97-.24,1.59.11.35.57.61,1.51,1.11,0,0,.59.32,1.98.95.55,1.21,1.08,2.48,1.59,3.81.19.51.38,1.01.56,1.51-1.27,1.16-2.54,2.33-3.81,3.49,1.09,1.6,2.05,2.91,2.78,3.89,1.51,2.02,2.06,2.61,2.38,2.94,1.26,1.3,1.6,1.29,2.3,2.14,1.18,1.43,1.09,2.47,1.75,4.13,1.23,3.09,2.83,2.71,4.44,5.71.85,1.59,1.08,3.3,1.51,6.67.38,3.03.36,4.71.48,7.3.28,6.15.82,5.65,1.27,12.7.27,4.18.17,5.77.71,9.52.32,2.2.69,3.99.95,5.16,1.72-.03,3.44-.05,5.16-.08,1.52,2.2,1.6,3.69,1.35,4.68-.2.81-.62,1.24-.4,1.75.39.88,2.24.85,4.13.79,3.48-.09,3.97-.88,6.9-.71.53.03,1.14.09,1.19-.08.1-.33-1.86-1.34-3.73-1.98-2.07-.72-2.52-.47-3.57-1.19-1.36-.94-2.33-2.55-1.98-3.02.17-.23.63-.17,1.03-.08-1.35-2.18-1.69-3.93-1.75-5.16-.04-.95.08-1.93-.24-3.49-.24-1.19-.56-2.3-.56-2.3-.17-.6-.26-.86-.4-1.43,0,0-.2-.87-.32-1.83-.2-1.7.02-3.79.08-4.76.03-.39-.14-2.19-.48-5.79-.26-2.76-.43-4.44.56-6.11.23-.39.47-.68.63-.87.18.63.54,1.52,1.35,2.14,1.34,1.04,3.11.74,4.29.56,2.6-.41,5.64-.82,9.6-1.27-.08.18-.66,1.58.08,2.86.94,1.62,3.11,1.44,3.25,1.43.9-.09,1.68-.72,3.25-1.98,1.38-1.11,1.48-1.49,1.51-1.67.18-1.03-.88-1.49-.79-2.7.07-1,.82-1,1.03-1.98.13-.64-.08-1.11-1.9-4.44-.76-1.4-1.21-2.2-.87-2.86.24-.48.73-.55.79-1.03.09-.67-.8-.92-.79-1.59,0-.77,1.22-1.47,2.06-1.75,1.21-.4,1.91-.03,2.3-.56.31-.41-.05-.75.16-1.59.24-.99.88-1.13,1.19-1.9Z"/>
        <path class="cls-1" d="M128.21,56.41l-3.13.28c.02.19.11.62.44.99.34.39.76.51,1.07.6.48.14,1.08.3,1.47,0,.42-.32.5-1.1.16-1.86Z"/>
      </g>
    </g>
  </g>
</svg>