<?xml version="1.0" encoding="UTF-8"?>
<svg id="Layer_2" data-name="Layer 2" xmlns="http://www.w3.org/2000/svg" viewBox="0 0 247.86 155.93">
  <defs>
    <style>
      .cls-1 {
        fill: none;
        stroke: #231f20;
        stroke-miterlimit: 10;
        stroke-width: 5px;
      }

      .cls-2 {
        fill: #231f20;
        stroke-width: 0px;
      }
    </style>
  </defs>
  <g id="Layer_10" data-name="Layer 10">
    <path class="cls-1" d="M73.25,28.26h98.3c2.49-2.09,5.39-4.08,8.76-5.75,3.11-1.54,24.19-11.64,44.08.27,12.13,7.26,22.37,21.84,20.81,38.88-1.87,20.36-19.35,30.52-21.08,31.49-11.76,6.57-23.28,5.36-27.2,4.77l-1.31-.94c-.11-.08-.22-.17-.33-.25.05.51.1,1.22.09,2.07-.02,3.44-.87,6.04-1.23,7.02-.17.46-.75,1.95-2.84,5.2-1.45,2.26-3,4.66-4.65,6.43-4.28,4.56-10.1,5.75-13.09,6.37-2.34.48-8.88,1.73-16.43-1.19-6.83-2.64-10.64-7.2-12.14-9.04-4.52-5.55-5.96-11.25-6.48-14.06l-25.83,1.92c-.18.53-.46,1.29-.82,2.19-.99,2.46-3,7.45-6.66,11.68-4.36,5.03-9.51,7.2-11.77,8.12-3.07,1.26-10.04,4.1-18.35,2.1-10.13-2.44-18.89-11.29-19.99-20.9-.21-1.82-.11-3.37.02-4.43-.34.21-.83.49-1.46.78-1.31.59-2.6.9-4.65,1.12-3.79.41-6.42.16-6.42.16-4.34-.33-9-.68-14.38-2.81-8.32-3.3-13.24-8.82-15.38-11.27-1.89-2.17-6.65-7.75-8.99-16.38-4.68-17.23,4.34-31.64,5.75-33.82,1.43-2.2,6.26-9.21,15.42-14.33,4.01-2.24,17.73-9.08,33.45-4.06,7.13,2.27,12.07,6.16,14.79,8.66Z"/>
    <path class="cls-1" d="M24.04,23.85c.52-1.57,2.01-6.01,3.66-10.64.19-.54.52-1.42,1.23-2.36,1.19-1.57,2.72-2.36,4.55-3.08,3.97-1.55,7.43-1.97,8.11-2.05,5.24-.61,8.97-1.04,13.93-.03,3.12.63,6.77,1.37,9.93,4.18,1.41,1.25,2.61,2.81,3.53,4,1.86,2.43,2.45,3.78,2.76,4.63.3.83.44,1.46.64,2.46.35,1.74.81,4.18,1.29,7.23-.22-.02-.44-.03-.66-.05-.09-.07-.23-.18-.41-.32,0,0-3.56-2.75-6.91-4.63-9.26-5.21-19.59-5.13-19.59-5.13-7.92.06-13.89,2.61-17.39,4.11-2.04.87-3.69,1.73-4.84,2.37.06-.23.11-.46.17-.68Z"/>
    <path class="cls-1" d="M223.28,21.27c-.52-1.57-2.01-6.01-3.66-10.64-.19-.54-.52-1.42-1.23-2.36-1.19-1.57-2.72-2.36-4.55-3.08-3.97-1.55-7.43-1.97-8.11-2.05-5.24-.61-8.97-1.04-13.93-.03-3.12.63-6.77,1.37-9.93,4.18-1.41,1.25-2.61,2.81-3.53,4-1.86,2.43-2.45,3.78-2.76,4.63-.3.83-.44,1.46-.64,2.46-.35,1.74-.81,4.18-1.29,7.23.22-.02.44-.03.66-.05.09-.07.23-.18.41-.32,0,0,3.56-2.75,6.91-4.63,9.26-5.21,19.59-5.13,19.59-5.13,7.92.06,13.89,2.61,17.39,4.11,2.04.87,3.69,1.73,4.84,2.37-.06-.23-.11-.46-.17-.68Z"/>
    <path class="cls-1" d="M4.45,75.51c.31,2.55.74,6.02,1.28,10.13,1.33,10.16,2.46,17.7,2.88,20.4.79,5.21,1.68,10.23,3.47,20.26,1.47,8.25,1.98,10.79,3.92,14.15,3.54,6.11,8.41,9.01,9.4,9.58,1.59.92,4.16,2.16,7.48,2.83,2.17.43,8.49,1.61,15.24-1.73,4.75-2.35,7.22-5.89,9.95-9.77,2.64-3.75,4.27-7.45,6.25-11.96,1.2-2.72,2.08-5.03,2.67-6.64-.72-.51-1.65-1.22-2.67-2.12-2.53-2.24-4.08-4.31-4.38-4.72-3.01-4.09-4.03-7.98-4.24-8.83-.55-2.17-.7-4.05-.73-5.38.02-.29.05-.58.07-.87-.22.19-.55.45-.98.73-.88.57-2.69,1.54-6.85,1.71-1.44.06-2.59-.02-4.81-.18-.53-.04-3.7-.27-5.91-.59-6.46-.95-12-3.67-12-3.67-1.39-.69-7.71-3.9-13.1-10.54-2.12-2.62-3.48-5-4.06-6.07-1.35-2.48-2.25-4.78-2.88-6.71Z"/>
    <path class="cls-1" d="M195.65,97.7c.31.3.81.72,1.51,1.03.59.26,1.08.35,1.48.41,1.95.31,2.92.47,3.35.5,6.61.49,12.21-.71,12.21-.71,9.03-1.94,15.06-6.54,16.98-8.1.44-.36,4.32-3.55,7.51-8.08.57-.8,1.5-2.14,2.45-4.05.96-1.92,1.52-3.58,1.83-4.52.26-.79.46-1.47.6-1.97.02.56.03,1.13.05,1.69-.02.33-.06.85-.1,1.47-.52,7.04-1.38,12.25-1.73,14.44-1.5,9.4-2.83,17.73-3.56,26.97-.13,1.68-.3,4.06-.89,7.32-.77,4.22-1.49,8.19-3.42,11.84-2.85,5.39-8.8,10.96-16.7,12.32-6,1.03-10.78-.77-12.32-1.37-8.21-3.21-12.46-10.24-16.36-16.7-2.45-4.05-3.99-7.65-4.93-10.13.2-.17.49-.42.84-.74,1.28-1.18,2.14-2.19,2.62-2.75,2.35-2.77,3.52-4.16,3.97-4.81.89-1.29,2.97-4.37,4-8.86.49-2.11.61-3.93.62-5.22Z"/>
  </g>
  <g id="games_babel" data-name="games babel">
    <path class="cls-2" d="M85.98,73.05c-.72-.33-1.79,1.87-3.51,1.79-.95-.04-1.67-.92-3.14-2.64-1.24-1.45-2.41-2.84-3.06-5.06-.32-1.08-.42-2.03-.45-2.69.55.28,1.15.56,1.79.82.82.34,1.6.61,2.32.82,1.72-.07,3.44-.15,5.16-.22.34-.21.86-.55,1.49-.97,3.35-2.23,3.82-2.89,4.93-3.14,1.96-.43,3.8.9,4.63,1.49,4.06,2.92,3.98,8.57,3.96,9.34-1.34.17-2.69.35-4.03.52-.37.93-.81,2.33-.82,4.03-.02,2.1.62,3.55,1.2,5.23.6,1.74,1.33,4.27,1.79,7.55-1.37-.17-2.74-.35-4.11-.52-.61-.58-1.28-1.3-1.94-2.17-1.03-1.36-1.71-2.67-2.17-3.74-.14.19-.37.46-.67.75-3.88,3.63-12.18,1.39-16.96-1.2-6.51-3.51-9.43-9.22-10.66-11.63-2.67-5.22-3.07-9.83-3.24-11.98-.38-4.99-.74-9.67,2.31-13.67,3.02-3.95,7.61-4.92,9.12-5.23,4.37-.92,7.83.16,11.36,1.27,4.07,1.28,6.9,2.16,9.19,4.86,3.17,3.73,4.6,10.09,1.79,13.52-1.03,1.26-2.95,2.51-4.86,2.27-1.07-.13-1.75-.69-5.6-4.59-2.93-2.97-3.47-3.6-4.63-3.96-2.04-.63-4.1.14-5.53.9-.06.39-.15.96-.22,1.64-.11.99-.42,3.89,0,6.65.65,4.2,2.87,7.17,3.96,8.59,1.01,1.31,2.7,3.21,5.3,4.93,1.79.05,3.59.1,5.38.15.53-2.72.31-3.56-.07-3.74Z"/>
    <path class="cls-2" d="M184.74,66.1c-1.9-2.65-5.51-2.75-6.13-2.76.34-.06.83-.18,1.34-.47,3.26-1.87,2.58-7.98,2.54-8.27-.53-4.28-3.31-7-4.56-8.22-.45-.44-3.45-3.31-7.99-4.48-9.38-2.42-17.58,4.34-18.53,5.16l-4.93-.67c.01,1.95.31,5.58,2.39,9.41,1.22,2.24,2.67,3.85,3.81,4.93,1.67.07,3.34.15,5.01.22,2.33,5.78,4.7,11.59,7.1,17.41,1.19,2.9,2.39,5.79,3.59,8.67.43.59,1.09,1.36,2.02,2.09.95.75,1.86,1.21,2.54,1.49.47-1.18.55-2.15.52-2.84-.03-.68-.15-1.01-.22-1.79-.1-1.14.02-2.1.15-2.76,1.72.02,3.44.05,5.16.07.24-.09.58-.24.97-.45,4.19-2.27,5.27-7.48,5.6-9.11.64-3.11,1.14-5.52-.37-7.62ZM166.51,62.51c-.4-2.71-.8-5.43-1.2-8.14.43-.43,1.31-1.19,2.61-1.49,1.95-.45,4.62.16,5.45,2.02.75,1.68-.39,3.55-1.05,4.63-.45.74-1.21,1.94-2.76,2.61-1.3.56-2.49.46-3.06.37ZM176.97,73.27c-.49,1.88-1.81,3.15-3.59,4.86-.68.65-1.29,1.16-1.72,1.49-.7-2.86-1.39-5.73-2.09-8.59.41-.56,1.46-1.84,3.29-2.39.75-.23,2.24-.68,3.29.07,1.36.98,1.13,3.37.82,4.56Z"/>
    <path class="cls-2" d="M139.55,60.71c-1.26.02-2.52.03-3.77.05l-.04-2.5h-7.34v2.33h-6.57v-2.55c-2.3.02-4.6.04-6.89.06v2.68c-1.26.01-2.51.02-3.77.03-.04,2.23-.07,4.45-.11,6.68,1.3-.01,2.61-.03,3.91-.04l.06,7.28c1-.03,1.99-.06,2.99-.09,0-1.13-.02-2.26-.02-3.39l3.68-.04c-.03-1.2-.05-2.41-.08-3.61-1.23-.01-2.46-.02-3.69-.03,0-.85.01-1.7.02-2.55-1.04,0-2.07,0-3.11,0,0-1.21.01-2.41.02-3.62,1.1.01,2.19.03,3.29.04-.02,1.03-.03,2.06-.05,3.1,1.26,0,2.51,0,3.77,0l.1,3.1h3.6c.02-1.05.04-2.11.06-3.16h2.62c0-1.05-.01-2.11-.02-3.16h3.78v3.79c-.84-.02-1.68-.03-2.52-.05.02.89.04,1.77.06,2.66l-3.64.06v3.62c1.2,0,2.39.01,3.59.02,0,.85.02,1.7.02,2.55.81,0,1.63-.01,2.44-.02v3.76h-3.77v-2.42c-.91-.02-1.82-.03-2.73-.05,0-1.2.01-2.41.02-3.61-1.18-.02-2.37-.04-3.55-.06,0,1.22,0,2.45.01,3.67-1.29-.01-2.58-.02-3.87-.04.01.81.02,1.62.03,2.43-1.01.01-2.02.02-3.02.04,0-.98-.02-1.95-.02-2.93-1.28,0-2.55-.01-3.83-.02-.01,2.37-.02,4.73-.03,7.1l3.73.1v3.35h6.83v-3.8h7.34c.03,1.27.06,2.53.1,3.8h6.61v-3.64h3.7v-7.13l-3.64.07-.29-7.05h3.93c.03-2.27.05-4.54.08-6.81Z"/>
  </g>
</svg>